<?xml version="1.0" encoding="UTF-8" standalone="no"?><!DOCTYPE svg PUBLIC "-//W3C//DTD SVG 1.1//EN" "http://www.w3.org/Graphics/SVG/1.1/DTD/svg11.dtd"><svg width="100%" height="100%" viewBox="0 0 14 14" version="1.1" xmlns="http://www.w3.org/2000/svg" xmlns:xlink="http://www.w3.org/1999/xlink" xml:space="preserve" xmlns:serif="http://www.serif.com/" style="fill-rule:evenodd;clip-rule:evenodd;stroke-linejoin:round;stroke-miterlimit:2;"><path id="icon-physics" d="M7,4c1.656,0 3,1.344 3,3c0,1.656 -1.344,3 -3,3c-1.656,0 -3,-1.344 -3,-3c0,-1.656 1.344,-3 3,-3Zm4.496,6.307l0.87,0.555c-1.188,1.886 -3.282,3.138 -5.664,3.138c-3.699,-0 -6.702,-3.021 -6.702,-6.741c0,-3.72 3.003,-6.74 6.702,-6.74c0.665,-0 1.307,0.097 1.914,0.279l-0.294,0.994c-0.513,-0.154 -1.057,-0.236 -1.62,-0.236c-3.13,-0 -5.671,2.555 -5.671,5.703c-0,3.148 2.541,5.704 5.671,5.704c2.016,-0 3.788,-1.06 4.794,-2.656Zm0.441,-10.307c1.139,-0 2.063,0.929 2.063,2.074c0,1.145 -0.924,2.074 -2.063,2.074c-1.139,0 -2.063,-0.929 -2.063,-2.074c-0,-1.145 0.924,-2.074 2.063,-2.074Z" style="fill:#5f7fc0;"/></svg>