<?xml version="1.0" encoding="UTF-8" standalone="no"?><!DOCTYPE svg PUBLIC "-//W3C//DTD SVG 1.1//EN" "http://www.w3.org/Graphics/SVG/1.1/DTD/svg11.dtd"><svg width="100%" height="100%" viewBox="0 0 24 24" version="1.1" xmlns="http://www.w3.org/2000/svg" xmlns:xlink="http://www.w3.org/1999/xlink" xml:space="preserve" xmlns:serif="http://www.serif.com/" style="fill-rule:evenodd;clip-rule:evenodd;stroke-linejoin:round;stroke-miterlimit:2;"><path id="icon-position" d="M11,6l2,0l0,3l-2,0l0,-3Zm2,12l-2,0l0,-3l2,0l0,3Zm5,-7l0,2l-3,0l0,-2l3,0Zm-12,2l0,-2l3,0l0,2l-3,0Zm3,-8l3,-4l3,4l-6,0Zm6,14l-3,4l-3,-4l6,0Zm4,-10l4,3l-4,3l0,-6Zm-14,6l-4,-3l4,-3l0,6Z" style="fill:#e4e4e4;"/></svg>