<?xml version="1.0" encoding="UTF-8" standalone="no"?>
<!DOCTYPE svg PUBLIC "-//W3C//DTD SVG 1.1//EN" "http://www.w3.org/Graphics/SVG/1.1/DTD/svg11.dtd">
<svg width="100%" height="100%" viewBox="0 0 14 14" version="1.1" xmlns="http://www.w3.org/2000/svg" xmlns:xlink="http://www.w3.org/1999/xlink" xml:space="preserve" xmlns:serif="http://www.serif.com/" style="fill-rule:evenodd;clip-rule:evenodd;stroke-linejoin:round;stroke-miterlimit:2;">
    <g transform="matrix(1,0,0,1,-585.5,-50.5)">
        <path d="M598.58,57.228L599.42,57.772C599.42,57.772 598.33,59.458 596.651,60.806C595.489,61.739 594.05,62.5 592.5,62.5C590.95,62.5 589.511,61.739 588.349,60.806C586.67,59.458 585.58,57.772 585.58,57.772L586.42,57.228C586.42,57.228 587.427,58.782 588.975,60.026C589.965,60.821 591.18,61.5 592.5,61.5C593.82,61.5 595.035,60.821 596.025,60.026C597.573,58.782 598.58,57.228 598.58,57.228Z" style="fill:rgb(204,204,204);"/>
    </g>
</svg>