<?xml version="1.0" encoding="UTF-8" standalone="no"?><!DOCTYPE svg PUBLIC "-//W3C//DTD SVG 1.1//EN" "http://www.w3.org/Graphics/SVG/1.1/DTD/svg11.dtd"><svg width="100%" height="100%" viewBox="0 0 14 14" version="1.1" xmlns="http://www.w3.org/2000/svg" xmlns:xlink="http://www.w3.org/1999/xlink" xml:space="preserve" xmlns:serif="http://www.serif.com/" style="fill-rule:evenodd;clip-rule:evenodd;stroke-linejoin:round;stroke-miterlimit:2;"><path id="icon-eye" d="M7,2.5c3.587,0 6.5,4.5 6.5,4.5c0,0 -2.913,4.5 -6.5,4.5c-3.587,0 -6.5,-4.5 -6.5,-4.5c0,0 2.913,-4.5 6.5,-4.5Zm0,1c-1.932,0 -3.5,1.568 -3.5,3.5c0,1.932 1.568,3.5 3.5,3.5c1.932,0 3.5,-1.568 3.5,-3.5c0,-1.932 -1.568,-3.5 -3.5,-3.5Zm0,2c0.828,0 1.5,0.672 1.5,1.5c0,0.828 -0.672,1.5 -1.5,1.5c-0.828,0 -1.5,-0.672 -1.5,-1.5c0,-0.828 0.672,-1.5 1.5,-1.5Z" style="fill:#ccc;"/></svg>