<?xml version="1.0" encoding="UTF-8" standalone="no"?><!DOCTYPE svg PUBLIC "-//W3C//DTD SVG 1.1//EN" "http://www.w3.org/Graphics/SVG/1.1/DTD/svg11.dtd"><svg width="100%" height="100%" viewBox="0 0 24 24" version="1.1" xmlns="http://www.w3.org/2000/svg" xmlns:xlink="http://www.w3.org/1999/xlink" xml:space="preserve" xmlns:serif="http://www.serif.com/" style="fill-rule:evenodd;clip-rule:evenodd;stroke-linejoin:round;stroke-miterlimit:2;"><path id="icon-rotation" d="M11.965,9c1.656,0 3,1.344 3,3c-0,1.656 -1.344,3 -3,3c-1.656,0 -3,-1.344 -3,-3c-0,-1.656 1.344,-3 3,-3Zm-11.965,2l6,0l-3,4l-3,-4Zm3.676,-0.89l-0.975,-0.222c0.961,-4.228 4.746,-7.388 9.264,-7.388c2.827,0 5.368,1.238 7.109,3.201l-0.748,0.664c-1.558,-1.757 -3.831,-2.865 -6.361,-2.865c-4.042,0 -7.429,2.827 -8.289,6.61Zm16.483,4.156l0.964,0.267c-1.11,4.015 -4.792,6.967 -9.158,6.967c-2.667,0 -5.079,-1.101 -6.805,-2.874l0.716,-0.697c1.545,1.585 3.703,2.571 6.089,2.571c3.906,-0 7.201,-2.641 8.194,-6.234Zm3.841,-1.266l-6,-0l3,-4l3,4Z" style="fill:#e4e4e4;"/></svg>