<?xml version="1.0" encoding="UTF-8" standalone="no"?><!DOCTYPE svg PUBLIC "-//W3C//DTD SVG 1.1//EN" "http://www.w3.org/Graphics/SVG/1.1/DTD/svg11.dtd"><svg width="100%" height="100%" viewBox="0 0 14 14" version="1.1" xmlns="http://www.w3.org/2000/svg" xmlns:xlink="http://www.w3.org/1999/xlink" xml:space="preserve" xmlns:serif="http://www.serif.com/" style="fill-rule:evenodd;clip-rule:evenodd;stroke-linejoin:round;stroke-miterlimit:2;"><path id="icon-texture" d="M14,0l0,14l-14,0l-0,-14l14,0Zm-13,13l3,0l0,-3l3,0l0,3l3,0l0,-3l3,0l0,-3l-3,0l0,-3l3,0l0,-3l-3,0l0,3l-3,0l0,-3l-3,0l0,3l-3,0l0,3l3,0l0,3l-3,0l0,3Zm3,-9l3,0l0,3l-3,0l0,-3Zm3,6l0,-3l3,0l0,3l-3,0Z" style="fill:#a9575f;"/></svg>