<?xml version="1.0" encoding="UTF-8" standalone="no"?><!DOCTYPE svg PUBLIC "-//W3C//DTD SVG 1.1//EN" "http://www.w3.org/Graphics/SVG/1.1/DTD/svg11.dtd"><svg width="100%" height="100%" viewBox="0 0 14 14" version="1.1" xmlns="http://www.w3.org/2000/svg" xmlns:xlink="http://www.w3.org/1999/xlink" xml:space="preserve" xmlns:serif="http://www.serif.com/" style="fill-rule:evenodd;clip-rule:evenodd;stroke-linejoin:round;stroke-miterlimit:2;"><path id="icon-object-properties" d="M4,0l0,1l-3,-0l0,3l-1,0l0,-4l4,0Zm-3,13l3,-0l0,1l-4,-0l0,-4l1,0l-0,3Zm12,0l0,-3l1,0l0,4l-4,0l0,-1l3,0Zm1,-13l-0,4l-1,0l0,-3l-3,0l0,-1l4,0Zm-3,3l-0,8l-8,-0l-0,-8l8,-0Z" style="fill:#bb7f4e;"/></svg>